<?xml version="1.0" encoding="utf-8"?>
<!-- Generator: Adobe Illustrator 17.0.0, SVG Export Plug-In . SVG Version: 6.00 Build 0)  -->
<!DOCTYPE svg PUBLIC "-//W3C//DTD SVG 1.1//EN" "http://www.w3.org/Graphics/SVG/1.1/DTD/svg11.dtd">
<svg version="1.1" id="Warstwa_1" xmlns="http://www.w3.org/2000/svg" xmlns:xlink="http://www.w3.org/1999/xlink" x="0px" y="0px"
	 width="77.5px" height="77.09px" viewBox="0 0 77.5 77.09" enable-background="new 0 0 77.5 77.09" xml:space="preserve">
<path d="M38.739,77.103c-21.369,0-38.754-17.295-38.754-38.553S17.37-0.003,38.739-0.003S77.493,17.292,77.493,38.55
	S60.108,77.103,38.739,77.103z M38.739,2.568c-19.944,0-36.17,16.141-36.17,35.982s16.226,35.983,36.17,35.983
	S74.91,58.391,74.91,38.55S58.683,2.568,38.739,2.568z M38.739,41.12H18.07c-0.713,0-1.292-0.574-1.292-1.285
	c0-0.711,0.579-1.285,1.292-1.285h19.377V8.993c0-0.711,0.579-1.285,1.292-1.285c0.713,0,1.292,0.574,1.292,1.285v30.842
	C40.031,40.546,39.452,41.12,38.739,41.12z"/>
</svg>
